<?xml version="1.0" encoding="utf-8"?>
<!-- Generator: Adobe Illustrator 24.1.1, SVG Export Plug-In . SVG Version: 6.00 Build 0)  -->
<svg version="1.1" id="Layer_1" xmlns="http://www.w3.org/2000/svg" xmlns:xlink="http://www.w3.org/1999/xlink" x="0px" y="0px"
	 viewBox="0 0 500 500" style="enable-background:new 0 0 500 500;" xml:space="preserve">
<style type="text/css">
	.st0{fill:#00005B;}
	.st1{fill:#9999FF;}
</style>
<g id="After_Effects" transform="translate(639 308)">
	<path id="Прямоугольник_3" class="st0" d="M-560.4-307.5h343.8c43.1,0,78.1,35,78.1,78.1v343.8
		c0,43.1-35,78.1-78.1,78.1h-343.8c-43.1,0-78.1-35-78.1-78.1v-343.8C-638.5-272.5-603.5-307.5-560.4-307.5z"/>
	<path id="Контур_4" class="st1" d="M-433.2-2.3h-76.3L-525,48.1c-0.4,1.8-2.1,3.1-4,3h-38.7c-2.2,0-3-1.2-2.3-3.6l66.1-187.6
		c0.7-2,1.3-4.2,2-6.8c0.9-4.4,1.3-8.9,1.3-13.4c-0.2-1.1,0.6-2.2,1.7-2.3c0.2,0,0.4,0,0.6,0h52.5c1.5,0,2.4,0.6,2.6,1.7l75,208.8
		c0.7,2.2,0,3.3-2,3.3H-413c-1.5,0.2-2.9-0.8-3.3-2.3L-433.2-2.3z M-497.6-37.4h52.2c-1.3-4.4-2.9-13.4-4.6-18.9s-3.6-11.4-5.6-17.7
		s-4-12.6-5.9-18.8s-3.8-12.3-5.5-18.2c-1.7-5.8-3.1-11.2-4.5-16h-0.3c-1.9,8.9-4.2,17.7-6.9,26.4c-3.1,9.9-6.2,20-9.4,30.4
		C-491.4-59.9-494.5-46.2-497.6-37.4z"/>
	<path id="Контур_5" class="st1" d="M-247-20.3H-312c0.9,6.7,3.2,13.1,6.7,18.9c3.7,5.5,8.9,9.8,15,12.4
		c8.4,3.8,17.6,5.7,26.8,5.7c6.2,0.2,12.4-0.3,18.5-1.4c6.6-1.2,13.1-3.1,19.3-5.8c1.1-0.9,1.6-0.3,1.7,1.6v31.4
		c0.1,0.9-0.1,1.7-0.5,2.5c-0.4,0.6-0.9,1.1-1.5,1.5c-6.8,3.2-14.1,5.6-21.5,7.1c-8.9,1.3-17.8,1.6-26.8,1.1
		c-13.5,0.4-26.9-2.1-39.3-7.3c-10-4.4-18.8-11.1-25.8-19.5c-6.5-7.9-11.3-17.1-14.2-26.9c-2.9-9.7-4.3-19.8-4.3-29.9
		c0-11,1.7-22,5.1-32.5c3.3-10.2,8.5-19.8,15.4-28.1c6.8-8.2,15.2-14.9,24.8-19.5c10.8-5,22.5-7.4,34.4-7.1
		c11.5-0.2,23,2.1,33.6,6.6c8.5,3.8,15.9,9.7,21.6,17c5.4,7,9.5,14.9,12.2,23.3c2.6,8.1,3.9,16.6,4,25.1c0,4.8-0.2,9.3-0.5,13.2
		c-0.3,2.4-0.7,4.7-1.3,7c-0.2,1.5-1.5,2.6-3,2.6c-1.3,0-3.6,0.2-6.8,0.5c-3.2,0.3-8.9,0.2-13.6,0.3
		C-236.7-20.3-241.7-20.3-247-20.3z M-312.2-46.5h43.3c5.3,0,9.2-0.1,11.7-0.2c1.6,0,3.2-0.2,4.8-0.5v-2c0.2-4,0-7.9-0.7-11.8
		c-3.7-11.6-14.6-19.3-26.8-18.8c-11.4-0.7-22.1,5.4-27.3,15.5C-309.6-58.6-311.3-52.6-312.2-46.5z"/>
</g>
</svg>
