<svg xmlns="http://www.w3.org/2000/svg" xmlns:xlink="http://www.w3.org/1999/xlink" viewBox="0 0 75.2 77.8"><defs><style>.cls-1{fill:#2684ff;}.cls-2{fill:url(#linear-gradient);}.cls-3{fill:url(#linear-gradient-2);}</style><linearGradient id="linear-gradient" x1="35.46" y1="205.63" x2="19.38" y2="221.71" gradientTransform="translate(0 -189.89)" gradientUnits="userSpaceOnUse"><stop offset="0.18" stop-color="#0052cc"/><stop offset="1" stop-color="#2684ff"/></linearGradient><linearGradient id="linear-gradient-2" x1="39.65" y1="251.74" x2="55.69" y2="235.7" xlink:href="#linear-gradient"/></defs><g id="Layer_2" data-name="Layer 2"><g id="layer"><path class="cls-1" d="M74.3,36.7,40.8,3.2,37.6,0h0L12.4,25.2h0L.9,36.7a3.14,3.14,0,0,0,0,4.4l23,23L37.6,77.8,62.8,52.6l.4-.4L74.3,41.1A3.14,3.14,0,0,0,74.3,36.7ZM37.5,50.4,26,38.9,37.5,27.4,49,38.9Z"/><path class="cls-2" d="M37.5,27.4A19.37,19.37,0,0,1,37.4.1L12.2,25.3,25.9,39Z"/><path class="cls-3" d="M49,38.8,37.5,50.3a19.31,19.31,0,0,1,0,27.4h0L62.8,52.4Z"/></g></g></svg>