<svg xmlns="http://www.w3.org/2000/svg" viewBox="0 0 48.18 33.01"><defs><style>.cls-1{fill:#334a5e;}.cls-2{fill:#ededed;}.cls-3{fill:#f4c04e;}.cls-4{fill:#29d3b2;}.cls-5{fill:#df84ef;}.cls-6{fill:#68b2ea;}.cls-7{fill:#bcbcbc;}.cls-8{fill:#8e8e8e;}</style></defs><g id="Layer_2" data-name="Layer 2"><g id="Capa_1" data-name="Capa 1"><path class="cls-1" d="M3.48,28.72V2.07A2.07,2.07,0,0,1,5.55,0H42.74A2.07,2.07,0,0,1,44.8,2.07V28.72Z"/><rect class="cls-2" x="7.05" y="3.19" width="34.08" height="22.44"/><rect class="cls-3" x="10.34" y="13.22" width="5.03" height="2.17"/><rect class="cls-4" x="17.31" y="13.22" width="12.35" height="2.17"/><rect class="cls-4" x="31.52" y="13.22" width="7.5" height="2.17"/><rect class="cls-5" x="10.34" y="19.83" width="10.41" height="2.17"/><rect class="cls-6" x="22.69" y="19.83" width="9.53" height="2.17"/><rect class="cls-5" x="33.99" y="19.83" width="5.03" height="2.17"/><rect class="cls-5" x="10.17" y="6.61" width="6.7" height="2.17"/><rect class="cls-3" x="33.81" y="6.61" width="5.29" height="2.17"/><rect class="cls-6" x="18.72" y="6.61" width="13.14" height="2.17"/><path class="cls-7" d="M0,28.72H48.18a0,0,0,0,1,0,0v2.16A2.13,2.13,0,0,1,46.05,33H2.13A2.13,2.13,0,0,1,0,30.88V28.72A0,0,0,0,1,0,28.72Z"/><path class="cls-8" d="M19.54,28.72h9.11a0,0,0,0,1,0,0v1.49a.65.65,0,0,1-.65.65h-7.8a.65.65,0,0,1-.65-.65V28.72A0,0,0,0,1,19.54,28.72Z"/></g></g></svg>