<svg xmlns="http://www.w3.org/2000/svg" viewBox="0 0 40.06 32"><defs><style>.cls-1{fill:#334a5e;}.cls-2{fill:#d3d3d8;}.cls-3{fill:#556f7f;}.cls-4{fill:#ffd15c;}.cls-5{fill:#4cdbc4;}.cls-6{fill:#df84ef;}.cls-7{fill:#cdd6e0;}</style></defs><g id="Layer_2" data-name="Layer 2"><g id="Capa_1" data-name="Capa 1"><path class="cls-1" d="M40,29.66c-.16.32-.41.95-.75.95H.88c-.25,0-.59-.63-.75-.95,0,0-.59,2.34.75,2.34H39.21C40.46,32.1,40,29.66,40,29.66Z"/><path class="cls-2" d="M2.85,23.9.18,29.45c-.17.62.08,1.16.67,1.16H39.18a.77.77,0,0,0,.67-1.16L37.18,23.9Z"/><path class="cls-1" d="M2.81,23.9V1.72A1.72,1.72,0,0,1,4.53,0H35.48a1.72,1.72,0,0,1,1.71,1.72V23.9Z"/><rect class="cls-3" x="4.61" y="1.89" width="30.69" height="20.2"/><rect class="cls-4" x="6.07" y="11" width="4.9" height="1.81"/><rect class="cls-5" x="12.87" y="11" width="12.04" height="1.81"/><rect class="cls-5" x="26.71" y="11" width="7.31" height="1.81"/><rect class="cls-6" x="6.07" y="16.51" width="10.14" height="1.81"/><rect class="cls-7" x="18.11" y="16.51" width="9.28" height="1.81"/><rect class="cls-6" x="29.11" y="16.51" width="4.9" height="1.81"/><rect class="cls-6" x="5.9" y="5.5" width="6.53" height="1.81"/><rect class="cls-4" x="28.94" y="5.5" width="5.16" height="1.81"/><rect class="cls-7" x="14.24" y="5.5" width="12.81" height="1.81"/></g></g></svg>