<svg xmlns="http://www.w3.org/2000/svg" viewBox="0 0 51.19 33.79"><defs><style>.cls-1{fill:#334a5e;}.cls-2{fill:#ededed;}.cls-3{fill:#f4c04e;}.cls-4{fill:#29d3b2;}.cls-5{fill:#df84ef;}.cls-6{fill:#68b2ea;}.cls-7{fill:#afafaf;}.cls-8{fill:#777;}</style></defs><g id="Layer_2" data-name="Layer 2"><g id="Capa_1" data-name="Capa 1"><path class="cls-1" d="M5,28.72V2.07A2.07,2.07,0,0,1,7.05,0H44.24a2.07,2.07,0,0,1,2.07,2.07V28.72Z"/><rect class="cls-2" x="8.55" y="3.19" width="34.08" height="22.44"/><rect class="cls-3" x="11.85" y="13.22" width="5.03" height="2.17"/><rect class="cls-4" x="18.82" y="13.22" width="12.35" height="2.17"/><rect class="cls-4" x="33.02" y="13.22" width="7.5" height="2.17"/><rect class="cls-5" x="11.85" y="19.83" width="10.41" height="2.17"/><rect class="cls-6" x="24.2" y="19.83" width="9.53" height="2.17"/><rect class="cls-5" x="35.49" y="19.83" width="5.03" height="2.17"/><rect class="cls-5" x="11.67" y="6.61" width="6.7" height="2.17"/><rect class="cls-3" x="35.31" y="6.61" width="5.29" height="2.17"/><rect class="cls-6" x="20.23" y="6.61" width="13.14" height="2.17"/><path class="cls-7" d="M0,28.72H51.19a0,0,0,0,1,0,0V31.4a2.39,2.39,0,0,1-2.39,2.39H2.39A2.39,2.39,0,0,1,0,31.4V28.72a0,0,0,0,1,0,0Z"/><path class="cls-8" d="M20.21,28.72H31a0,0,0,0,1,0,0v1.43a.71.71,0,0,1-.71.71H20.92a.71.71,0,0,1-.71-.71V28.72A0,0,0,0,1,20.21,28.72Z"/></g></g></svg>