<svg xmlns="http://www.w3.org/2000/svg" viewBox="0 0 48.18 32"><defs><style>.cls-1{fill:#334a5e;}.cls-2{fill:#ededed;}.cls-3{fill:#f4c04e;}.cls-4{fill:#29d3b2;}.cls-5{fill:#df84ef;}.cls-6{fill:#68b2ea;}.cls-7{fill:#bcbcbc;}.cls-8{fill:#8e8e8e;}</style></defs><g id="Layer_2" data-name="Layer 2"><g id="Capa_1" data-name="Capa 1"><path class="cls-1" d="M3.48,28.72V2.07A2.07,2.07,0,0,1,5.55,0H42.74A2.07,2.07,0,0,1,44.8,2.07V28.72Z"/><rect class="cls-2" x="5.65" y="2.27" width="36.88" height="24.28"/><rect class="cls-3" x="7.41" y="13.22" width="5.89" height="2.17"/><rect class="cls-4" x="15.57" y="13.22" width="14.46" height="2.17"/><rect class="cls-4" x="32.2" y="13.22" width="8.78" height="2.17"/><rect class="cls-5" x="7.41" y="19.83" width="12.19" height="2.17"/><rect class="cls-6" x="21.87" y="19.83" width="11.16" height="2.17"/><rect class="cls-5" x="35.09" y="19.83" width="5.89" height="2.17"/><rect class="cls-5" x="7.2" y="6.61" width="7.85" height="2.17"/><rect class="cls-3" x="34.89" y="6.61" width="6.2" height="2.17"/><rect class="cls-6" x="17.22" y="6.61" width="15.39" height="2.17"/><path class="cls-7" d="M0,28.72H48.18a0,0,0,0,1,0,0v1.42A1.86,1.86,0,0,1,46.32,32H1.86A1.86,1.86,0,0,1,0,30.14V28.72A0,0,0,0,1,0,28.72Z"/><path class="cls-8" d="M19.54,28.72h9.11a0,0,0,0,1,0,0v1.07a.57.57,0,0,1-.57.57h-8a.57.57,0,0,1-.57-.57V28.72A0,0,0,0,1,19.54,28.72Z"/></g></g></svg>