<svg xmlns="http://www.w3.org/2000/svg" viewBox="0 0 32 31.99"><defs><style>.cls-1{fill:#e7e7e7;}.cls-2{fill:#d3d3d8;}.cls-3{fill:#df84ef;}.cls-4{fill:#bd6ace;}.cls-5{fill:#3e5959;}.cls-6{fill:#384949;}.cls-7{fill:#293939;}</style></defs><g id="Layer_2" data-name="Layer 2"><g id="Capa_1" data-name="Capa 1"><path class="cls-1" d="M26.29,11,21,5.7a.93.93,0,0,0-1.07-.19L8,11.46a1,1,0,0,0-.46.49L.07,30.7l.62.61.6.6L20,24.41a.9.9,0,0,0,.49-.45l5.94-11.88A.91.91,0,0,0,26.29,11Z"/><path class="cls-2" d="M20.53,24l5.94-11.88A.91.91,0,0,0,26.29,11L23.63,8.35.68,31.3h0l.6.6L20,24.41A.9.9,0,0,0,20.53,24Z"/><path class="cls-3" d="M27,13.91a1,1,0,0,1-.66-.27L18.35,5.69a.94.94,0,0,1,0-1.33l4.1-4.1a1,1,0,0,1,1.32,0l8,8a1,1,0,0,1,.27.67,1,1,0,0,1-.27.66l-4.1,4.1A1,1,0,0,1,27,13.91Z"/><path class="cls-4" d="M26.3,13.64a1,1,0,0,0,.66.27,1,1,0,0,0,.67-.27l4.1-4.1A1,1,0,0,0,32,8.88a1,1,0,0,0-.27-.67l-4-4L22.32,9.66Z"/><path class="cls-5" d="M.94,32a.94.94,0,0,1-.67-1.6l11.8-11.8a.94.94,0,0,1,1.33,1.33L1.6,31.71A.9.9,0,0,1,.94,32Z"/><path class="cls-6" d="M.94,32a.9.9,0,0,0,.66-.28L13.4,19.92a.94.94,0,0,0,0-1.33L.27,31.71A.94.94,0,0,0,.94,32Z"/><path class="cls-6" d="M14.06,20.74a2.83,2.83,0,0,1-2-.8,2.86,2.86,0,0,1-.84-2,2.81,2.81,0,1,1,2.81,2.81Z"/><path class="cls-7" d="M12.09,19.94a2.81,2.81,0,0,0,4.78-2,2.8,2.8,0,0,0-.82-2l-4,4Z"/></g></g></svg>