<?xml version="1.0" encoding="utf-8"?>
<!-- Generator: Adobe Illustrator 24.1.1, SVG Export Plug-In . SVG Version: 6.00 Build 0)  -->
<svg version="1.1" id="Layer_1" xmlns="http://www.w3.org/2000/svg" xmlns:xlink="http://www.w3.org/1999/xlink" x="0px" y="0px"
	 viewBox="0 0 500 500" style="enable-background:new 0 0 500 500;" xml:space="preserve">
<style type="text/css">
	.st0{fill:#00005B;}
	.st1{fill:#9999FF;}
</style>
<g id="Premiere" transform="translate(4175 308)">
	<path id="Прямоугольник_26" class="st0" d="M-4096.9-308h343.8c43.1,0,78.1,35,78.1,78.1v343.8
		c0,43.1-35,78.1-78.1,78.1h-343.8c-43.1,0-78.1-35-78.1-78.1v-343.8C-4175-273-4140-308-4096.9-308z"/>
	<path id="Контур_52" class="st1" d="M-4057.1,45.9v-210.7c0-1.8,0.9-2.7,1.8-2.7h46.4c6.3,0,14.3,1.8,20.5,1.8
		c14.2-0.2,28.4,1.9,42,6.3c10.5,3.4,19.9,9.2,27.7,17c6.6,6.6,11.7,14.5,15.2,23.2c2.8,8.7,4.3,17.7,4.5,26.8
		c0.7,15.6-3.7,30.9-12.5,43.8c-8,11.7-19.6,20.4-33,25c-14.9,5.3-30.6,8.1-46.4,8h-9.8c-1.8,0-9.8-1.8-14.3-1.8v65.2
		c0.2,1.3-0.7,2.5-2,2.7c-0.2,0-0.4,0-0.7,0h-37.5C-4056.2,48.6-4057.1,47.7-4057.1,45.9z M-4014.2-128.2v68.8
		c2.7,0,10.7,1.8,13.4,1.8h10.7c7.9,0.2,15.7-1,23.2-3.6c6.6-1.8,12.5-5.5,17-10.7c4.7-6.1,7-13.8,6.3-21.4
		c-0.1-6.2-1.6-12.3-4.5-17.9c-3.4-5.3-8.4-9.3-14.3-11.6c-7.7-2.8-15.9-4.3-24.1-4.5h-14.3C-4005.3-127-4009.8-127.3-4014.2-128.2z
		"/>
	<path id="Контур_53" class="st1" d="M-3870.5-113.9h35.7c2,0.3,3.7,1.7,4.5,3.6c0.9,1.8,1.8,2.7,1.8,4.5c0.7,2,1,4.1,0.9,6.2
		v7.1c6.2-7.4,13.8-13.4,22.3-17.9c8.5-5.4,18.5-7.9,28.6-7.1c1.8,0,2.7,0.9,2.7,1.8v41.1c0,1.8-0.9,2.7-3.6,2.7
		c-6.6-0.8-13.3-0.2-19.6,1.8c-5.9,0.8-11.6,2.6-17,5.4c-4.9,1.8-9.5,4.5-13.4,8V47.7c0.2,1.3-0.7,2.5-2,2.7c-0.2,0-0.4,0-0.7,0
		h-37.5c-1.8,0-2.7-0.9-3.6-2.7V-81.8c0.1-5.4-0.2-10.7-0.9-16.1c0-4.5-0.9-8.9-0.9-13.4c0-0.9,0-0.9,0.9-1.8
		C-3872.3-113.9-3871.4-113.9-3870.5-113.9z"/>
</g>
</svg>
