<svg xmlns="http://www.w3.org/2000/svg" xmlns:xlink="http://www.w3.org/1999/xlink" viewBox="0 0 32.01 32.01"><defs><style>.cls-1{fill:url(#linear-gradient);}.cls-2{fill:#fff;}</style><linearGradient id="linear-gradient" x1="16" y1="32.01" x2="16" gradientUnits="userSpaceOnUse"><stop offset="0" stop-color="#007abf"/><stop offset="1" stop-color="#0090e3"/></linearGradient></defs><g id="Layer_2" data-name="Layer 2"><g id="Layer_1-2" data-name="Layer 1"><rect class="cls-1" width="32.01" height="32.01" rx="3"/><path class="cls-2" d="M19.58,5h6.76a1.49,1.49,0,0,1,1.5,1.5v11a1.49,1.49,0,0,1-1.5,1.5H19.58a1.49,1.49,0,0,1-1.5-1.5V6.5A1.5,1.5,0,0,1,19.58,5Z"/><path class="cls-2" d="M5.66,5h6.76a1.49,1.49,0,0,1,1.5,1.5v19a1.49,1.49,0,0,1-1.5,1.5H5.66a1.49,1.49,0,0,1-1.5-1.5V6.5A1.5,1.5,0,0,1,5.66,5Z"/></g></g></svg>